<svg xmlns="http://www.w3.org/2000/svg" xmlns:xlink="http://www.w3.org/1999/xlink" viewBox="0 0 781.97 141"><defs><style>.cls-1{fill:url(#linear-gradient);}.cls-2{fill:url(#linear-gradient-2);}.cls-3{fill:url(#linear-gradient-3);}.cls-4{font-size:32.92px;font-family:ObjectSans-Regular, Object Sans;}.cls-5,.cls-6{fill:none;}.cls-5,.cls-7{stroke:#000;}.cls-5,.cls-6,.cls-7{stroke-miterlimit:10;stroke-width:2px;}.cls-6{stroke:url(#linear-gradient-4);}.cls-7{fill:#03b8ff;}</style><linearGradient id="linear-gradient" x1="548.74" y1="52.49" x2="620.56" y2="52.49" gradientUnits="userSpaceOnUse"><stop offset="0" stop-color="#f15a24"/><stop offset="0.17" stop-color="#f26323"/><stop offset="0.68" stop-color="#f67b1f"/><stop offset="0.99" stop-color="#f7841e"/></linearGradient><linearGradient id="linear-gradient-2" x1="626.54" y1="53.45" x2="703.87" y2="53.45" xlink:href="#linear-gradient"/><linearGradient id="linear-gradient-3" x1="710.33" y1="52.49" x2="781.97" y2="52.49" xlink:href="#linear-gradient"/><linearGradient id="linear-gradient-4" x1="149.69" y1="124.26" x2="244.74" y2="124.26" xlink:href="#linear-gradient"/></defs><g id="Layer_2" data-name="Layer 2"><g id="Layer_1-2" data-name="Layer 1"><path d="M150.21,10.6h40.1q17,0,23.58,8.13A20.3,20.3,0,0,1,218.2,31.9q0,10.71-9,16.28v.24q12.63,5.2,12.63,19.87v1.43q0,16.59-16.76,23.23a27.48,27.48,0,0,1-8.56,1.43H150.21Zm23.16,17.71V43.39h15.86q7.07,0,7.07-8.26,0-5.75-6-6.52a23.39,23.39,0,0,0-4.31-.3Zm0,31.84V75.89H191q5.39,0,7.3-4.73a16.28,16.28,0,0,0,.6-4q0-7.06-9.22-7.06Z"/><path d="M226,94.38V10.6h23.94V94.38Z"/><path d="M279.12,10.6V73.79h36.63V94.38H255.9V10.6Z"/><path d="M345,10.6V73.79h36.63V94.38H321.74V10.6Z"/><path d="M412.47,82.41l-4.43,12H382.66L416.18,10.6h21.54l33.52,83.78H445.86l-4.25-12Zm22.8-18-7.9-22.27-8.26,22.27Z"/><path d="M497.15,70.2h-1.79V94.38H472.13V10.6H510.8q20.52,0,27.77,12a26.62,26.62,0,0,1,5.5,17V41q0,20.34-21.6,27.41,17.24,22.14,23.28,26H517.62Q511.82,90.68,497.15,70.2Zm-1.79-40v20.1h10.89q11.25,0,12.93-2.63a11.8,11.8,0,0,0,1.91-6.46q0-11-14.12-11Z"/><path class="cls-1" d="M572.68,62.42v32H548.74V10.6h23.94V42.55h23.94V10.6h23.94V94.38H596.62v-32Z"/><path class="cls-2" d="M626.54,10.6h23.22V53.45q0,14.65,5.75,18,3.59,3.12,10,3.11,10.37,0,14.13-9.81a31.55,31.55,0,0,0,.72-6V10.6h23.46V55.84q0,24.3-15.09,33.75-9.33,6.7-24.17,6.71-26.94,0-35.43-22A47.24,47.24,0,0,1,626.54,58Z"/><path class="cls-3" d="M710.33,10.6h40.1q17,0,23.58,8.13a20.3,20.3,0,0,1,4.31,13.17q0,10.71-9,16.28v.24Q782,53.63,782,68.29v1.43Q782,86.31,765.21,93a27.53,27.53,0,0,1-8.56,1.43H710.33Zm23.16,17.71V43.39h15.86q7.06,0,7.06-8.26,0-5.75-6-6.52a23.46,23.46,0,0,0-4.31-.3Zm0,31.84V75.89h17.6q5.38,0,7.3-4.73a16.28,16.28,0,0,0,.6-4q0-7.06-9.22-7.06Z"/><text class="cls-4" transform="translate(634.53 132.18)">est 2022</text><polygon class="cls-5" points="599.24 119.46 249.58 119.46 245.62 129.07 596.86 129.07 599.24 119.46"/><path class="cls-6" d="M243.25,119.46H151.53a.85.85,0,0,0-.84.85v7.91a.85.85,0,0,0,.84.85h87.76Z"/><path class="cls-5" d="M602.19,129.07H623.5a.85.85,0,0,0,.84-.85v-7.91a.85.85,0,0,0-.84-.85H604.56Z"/><path class="cls-7" d="M613,129.07h10.91c.24,0,.43-.38.43-.85v-7.91c0-.47-.19-.85-.43-.85h-9.69Z"/><path d="M21.13,74.36a133.56,133.56,0,0,0,12.39,15A40.61,40.61,0,0,1,76.32,29.2C66.08,21.29,53,17.73,37.33,18.59a94,94,0,0,0-18.81,3.07A68.5,68.5,0,0,0,4,45.51,210.92,210.92,0,0,0,21.13,74.36Z"/><path d="M37.13,16.29c18-1,33.18,3.91,44.29,14.22A40.62,40.62,0,0,1,100.3,94.56Q117,78.38,132.45,43.91A68.51,68.51,0,0,0,21.7,18.48,94.62,94.62,0,0,1,37.13,16.29Z"/><path d="M133.57,47c-19.39,42.48-40.68,64-63.33,64h-.12c-9.38,0-19-3.79-28.5-11.18-7.54-5.86-15.08-14-22.39-24.19A211.76,211.76,0,0,1,2.93,48.62,68.5,68.5,0,1,0,133.57,47Z"/><path d="M61.18,67.66c-3.61-1.89-5.39-4.92-5.39-8.19,0-6.3,5.67-10.48,13.12-10.48,8.7,0,12.31,5,12.31,9.57a9,9,0,0,1-5.44,8.18v.18c3.67,1.37,6.87,4.46,6.87,9.22,0,6.75-5.67,11.33-14.31,11.33-9.45,0-13.8-5.32-13.8-10.36,0-4.47,2.57-7.56,6.64-9.33Zm12.6,9.16c0-3.26-2.47-5.21-5.84-6.12-2.87.8-4.53,2.86-4.53,5.55a5.1,5.1,0,0,0,5.27,5.21C71.71,81.46,73.78,79.46,73.78,76.82ZM64,59.19c0,2.52,2.23,4.12,5.21,5A5.07,5.07,0,0,0,73,59.53c0-2.35-1.32-4.64-4.52-4.64A4.13,4.13,0,0,0,64,59.19Z"/></g></g></svg>